<svg height="512pt" viewBox="0 0 512 512" width="512pt" xmlns="http://www.w3.org/2000/svg"><path d="m437.019531 74.980469c-48.351562-48.351563-112.636719-74.980469-181.019531-74.980469-68.378906 0-132.667969 26.628906-181.019531 74.980469-48.351563 48.351562-74.980469 112.640625-74.980469 181.019531s26.628906 132.667969 74.980469 181.019531c48.351562 48.351563 112.640625 74.980469 181.019531 74.980469 68.382812 0 132.667969-26.628906 181.019531-74.980469 48.351563-48.351562 74.980469-112.640625 74.980469-181.019531s-26.628906-132.667969-74.980469-181.019531zm-181.019531 407.019531c-124.617188 0-226-101.382812-226-226s101.382812-226 226-226 226 101.382812 226 226-101.382812 226-226 226zm0 0"/><path d="m397.777344 176.296875c-4.421875-2.734375-9.941406-2.984375-14.59375-.65625l-53.273438 26.632813v-2.507813c0-30.417969-24.746094-55.164063-55.167968-55.164063h-112.464844c-30.417969 0-55.167969 24.746094-55.167969 55.164063v112.46875c0 30.417969 24.75 55.167969 55.167969 55.167969h112.464844c30.421874 0 55.167968-24.75 55.167968-55.167969v-2.507813l53.273438 26.632813c2.117187 1.058594 4.414062 1.585937 6.707031 1.585937 2.742187 0 5.476563-.753906 7.886719-2.242187 4.421875-2.730469 7.113281-7.558594 7.113281-12.757813v-133.890624c0-5.199219-2.691406-10.027344-7.113281-12.757813zm-97.867188 135.9375c0 13.875-11.289062 25.164063-25.167968 25.164063h-112.464844c-13.878906 0-25.167969-11.289063-25.167969-25.164063v-112.46875c0-13.875 11.289063-25.164063 25.167969-25.164063h112.464844c13.878906 0 25.167968 11.289063 25.167968 25.164063zm74.980469-13.5625-44.976563-22.488281v-40.371094l44.976563-22.488281zm0 0"/></svg>